# xmcd
#
# Track frame offsets:
#	183
#	9028
#	29318
#	42545
#	57078
#	82278
#	95163
#	111970
#	132380
#	165403
#	185270
#
# Disc length: 2711 seconds
#
# Revision: 0
# Processed by: cddbd v1.4PL0 Copyright (c) Steve Scherf et al.
# Submitted via: EasyCDDAExtractor 4.6.9.1
#
DISCID=8c0a950b
DTITLE=Bob Dylan - Accoustic set N.Y.C.1963
DYEAR=1900
DGENRE=
TTITLE0=ramblin´then the world
TTITLE1=Bob Dylan´s dream
TTITLE2=tomorrow is a long time
TTITLE3=New Orleans rag
TTITLE4=walls of red wing
TTITLE5=hero blues
TTITLE6=who killed Davey Moore
TTITLE7=it´s all over now,baby blue
TTITLE8=visions of Johanna
TTITLE9=4th time around
TTITLE10=just like a woman
EXTD=
EXTT0=
EXTT1=
EXTT2=
EXTT3=
EXTT4=
EXTT5=
EXTT6=
EXTT7=
EXTT8=
EXTT9=
EXTT10=
PLAYORDER=
